<?xml version="1.0" encoding="UTF-8" standalone="no"?>
<!DOCTYPE svg PUBLIC "-//W3C//DTD SVG 1.1//EN"
 "http://www.w3.org/Graphics/SVG/1.1/DTD/svg11.dtd">
<!-- Generated by graphviz version 2.38.0 (20140413.2041)
 -->
<!-- Title: src/analysis/utils/Matcher.h Pages: 1 -->
<svg width="2140pt" height="184pt"
 viewBox="0.00 0.00 2139.50 184.00" xmlns="http://www.w3.org/2000/svg" xmlns:xlink="http://www.w3.org/1999/xlink">
<g id="graph0" class="graph" transform="scale(1 1) rotate(0) translate(4 180)">
<title>src/analysis/utils/Matcher.h</title>
<polygon fill="white" stroke="none" points="-4,4 -4,-180 2135.5,-180 2135.5,4 -4,4"/>
<!-- Node12 -->
<g id="node1" class="node"><title>Node12</title>
<polygon fill="#bfbfbf" stroke="black" points="1017,-145.5 1017,-175.5 1112,-175.5 1112,-145.5 1017,-145.5"/>
<text text-anchor="start" x="1025" y="-163.5" font-family="Helvetica,sans-Serif" font-size="10.00">src/analysis/utils</text>
<text text-anchor="middle" x="1064.5" y="-152.5" font-family="Helvetica,sans-Serif" font-size="10.00">/Matcher.h</text>
</g>
<!-- Node13 -->
<g id="node2" class="node"><title>Node13</title>
<g id="a_node2"><a xlink:href="_p_i_d___t_a_p_s_veto___kinfit_8cc.html" target="_top" xlink:title="src/analysis/physics\l/calibration/PID_TAPSVeto\l_Kinfit.cc">
<polygon fill="white" stroke="black" points="0,-67.5 0,-108.5 139,-108.5 139,-67.5 0,-67.5"/>
<text text-anchor="start" x="8" y="-96.5" font-family="Helvetica,sans-Serif" font-size="10.00">src/analysis/physics</text>
<text text-anchor="start" x="8" y="-85.5" font-family="Helvetica,sans-Serif" font-size="10.00">/calibration/PID_TAPSVeto</text>
<text text-anchor="middle" x="69.5" y="-74.5" font-family="Helvetica,sans-Serif" font-size="10.00">_Kinfit.cc</text>
</a>
</g>
</g>
<!-- Node12&#45;&gt;Node13 -->
<g id="edge1" class="edge"><title>Node12&#45;&gt;Node13</title>
<path fill="none" stroke="midnightblue" d="M1006.97,-160.162C861.976,-161.001 470.231,-158.124 148.5,-109 145.423,-108.53 142.292,-107.993 139.138,-107.405"/>
<polygon fill="midnightblue" stroke="midnightblue" points="1007,-163.662 1016.97,-160.095 1006.95,-156.662 1007,-163.662"/>
</g>
<!-- Node14 -->
<g id="node3" class="node"><title>Node14</title>
<g id="a_node3"><a xlink:href="_etap_omega_g_8cc.html" target="_top" xlink:title="src/analysis/physics\l/etaprime/EtapOmegaG.cc">
<polygon fill="white" stroke="black" points="157.5,-73 157.5,-103 301.5,-103 301.5,-73 157.5,-73"/>
<text text-anchor="start" x="165.5" y="-91" font-family="Helvetica,sans-Serif" font-size="10.00">src/analysis/physics</text>
<text text-anchor="middle" x="229.5" y="-80" font-family="Helvetica,sans-Serif" font-size="10.00">/etaprime/EtapOmegaG.cc</text>
</a>
</g>
</g>
<!-- Node12&#45;&gt;Node14 -->
<g id="edge2" class="edge"><title>Node12&#45;&gt;Node14</title>
<path fill="none" stroke="midnightblue" d="M1006.35,-159.002C879.448,-157.173 568.437,-148.647 311.5,-109 301.652,-107.48 291.25,-105.357 281.284,-103.058"/>
<polygon fill="midnightblue" stroke="midnightblue" points="1006.57,-162.505 1016.61,-159.141 1006.66,-155.506 1006.57,-162.505"/>
</g>
<!-- Node15 -->
<g id="node4" class="node"><title>Node15</title>
<g id="a_node4"><a xlink:href="_etap_omega_g__simple_8cc.html" target="_top" xlink:title="src/analysis/physics\l/etaprime/EtapOmegaG\l_simple.cc">
<polygon fill="white" stroke="black" points="320,-67.5 320,-108.5 451,-108.5 451,-67.5 320,-67.5"/>
<text text-anchor="start" x="328" y="-96.5" font-family="Helvetica,sans-Serif" font-size="10.00">src/analysis/physics</text>
<text text-anchor="start" x="328" y="-85.5" font-family="Helvetica,sans-Serif" font-size="10.00">/etaprime/EtapOmegaG</text>
<text text-anchor="middle" x="385.5" y="-74.5" font-family="Helvetica,sans-Serif" font-size="10.00">_simple.cc</text>
</a>
</g>
</g>
<!-- Node12&#45;&gt;Node15 -->
<g id="edge3" class="edge"><title>Node12&#45;&gt;Node15</title>
<path fill="none" stroke="midnightblue" d="M1006.72,-158.07C898.702,-154.647 659.109,-143.503 460.5,-109 457.446,-108.469 454.336,-107.873 451.204,-107.226"/>
<polygon fill="midnightblue" stroke="midnightblue" points="1006.66,-161.57 1016.76,-158.378 1006.87,-154.573 1006.66,-161.57"/>
</g>
<!-- Node16 -->
<g id="node5" class="node"><title>Node16</title>
<g id="a_node5"><a xlink:href="_find_proton_8cc.html" target="_top" xlink:title="src/analysis/physics\l/omega/FindProton.cc">
<polygon fill="white" stroke="black" points="469.5,-73 469.5,-103 589.5,-103 589.5,-73 469.5,-73"/>
<text text-anchor="start" x="477.5" y="-91" font-family="Helvetica,sans-Serif" font-size="10.00">src/analysis/physics</text>
<text text-anchor="middle" x="529.5" y="-80" font-family="Helvetica,sans-Serif" font-size="10.00">/omega/FindProton.cc</text>
</a>
</g>
</g>
<!-- Node12&#45;&gt;Node16 -->
<g id="edge4" class="edge"><title>Node12&#45;&gt;Node16</title>
<path fill="none" stroke="midnightblue" d="M1006.68,-156.479C918.112,-151.124 743.831,-137.71 598.5,-109 590.424,-107.405 581.927,-105.303 573.761,-103.061"/>
<polygon fill="midnightblue" stroke="midnightblue" points="1006.6,-159.981 1016.79,-157.078 1007.02,-152.993 1006.6,-159.981"/>
</g>
<!-- Node17 -->
<g id="node6" class="node"><title>Node17</title>
<g id="a_node6"><a xlink:href="_geo_acceptance_8cc.html" target="_top" xlink:title="src/analysis/physics\l/omega/GeoAcceptance.cc">
<polygon fill="white" stroke="black" points="607.5,-73 607.5,-103 753.5,-103 753.5,-73 607.5,-73"/>
<text text-anchor="start" x="615.5" y="-91" font-family="Helvetica,sans-Serif" font-size="10.00">src/analysis/physics</text>
<text text-anchor="middle" x="680.5" y="-80" font-family="Helvetica,sans-Serif" font-size="10.00">/omega/GeoAcceptance.cc</text>
</a>
</g>
</g>
<!-- Node12&#45;&gt;Node17 -->
<g id="edge5" class="edge"><title>Node12&#45;&gt;Node17</title>
<path fill="none" stroke="midnightblue" d="M1006.77,-151.138C945.822,-142.008 847.044,-126.354 762.5,-109 753.744,-107.203 744.505,-105.126 735.51,-103.006"/>
<polygon fill="midnightblue" stroke="midnightblue" points="1006.56,-154.644 1016.96,-152.657 1007.59,-147.721 1006.56,-154.644"/>
</g>
<!-- Node18 -->
<g id="node7" class="node"><title>Node18</title>
<g id="a_node7"><a xlink:href="_omega___ep_em_8cc.html" target="_top" xlink:title="src/analysis/physics\l/omega/Omega_EpEm.cc">
<polygon fill="white" stroke="black" points="771.5,-73 771.5,-103 909.5,-103 909.5,-73 771.5,-73"/>
<text text-anchor="start" x="779.5" y="-91" font-family="Helvetica,sans-Serif" font-size="10.00">src/analysis/physics</text>
<text text-anchor="middle" x="840.5" y="-80" font-family="Helvetica,sans-Serif" font-size="10.00">/omega/Omega_EpEm.cc</text>
</a>
</g>
</g>
<!-- Node12&#45;&gt;Node18 -->
<g id="edge6" class="edge"><title>Node12&#45;&gt;Node18</title>
<path fill="none" stroke="midnightblue" d="M1010.04,-142.358C971.785,-130.32 921.243,-114.412 885.322,-103.107"/>
<polygon fill="midnightblue" stroke="midnightblue" points="1009.39,-145.824 1019.98,-145.487 1011.49,-139.146 1009.39,-145.824"/>
</g>
<!-- Node19 -->
<g id="node8" class="node"><title>Node19</title>
<g id="a_node8"><a xlink:href="_omega___eta_g_8cc.html" target="_top" xlink:title="src/analysis/physics\l/omega/Omega_EtaG.cc">
<polygon fill="white" stroke="black" points="927.5,-73 927.5,-103 1061.5,-103 1061.5,-73 927.5,-73"/>
<text text-anchor="start" x="935.5" y="-91" font-family="Helvetica,sans-Serif" font-size="10.00">src/analysis/physics</text>
<text text-anchor="middle" x="994.5" y="-80" font-family="Helvetica,sans-Serif" font-size="10.00">/omega/Omega_EtaG.cc</text>
</a>
</g>
</g>
<!-- Node12&#45;&gt;Node19 -->
<g id="edge7" class="edge"><title>Node12&#45;&gt;Node19</title>
<path fill="none" stroke="midnightblue" d="M1043.02,-137.864C1031.85,-126.614 1018.51,-113.179 1008.64,-103.246"/>
<polygon fill="midnightblue" stroke="midnightblue" points="1040.8,-140.603 1050.33,-145.233 1045.77,-135.671 1040.8,-140.603"/>
</g>
<!-- Node20 -->
<g id="node9" class="node"><title>Node20</title>
<g id="a_node9"><a xlink:href="pi0eta_8cc.html" target="_top" xlink:title="src/analysis/physics\l/omega/pi0eta.cc">
<polygon fill="white" stroke="black" points="1079.5,-73 1079.5,-103 1189.5,-103 1189.5,-73 1079.5,-73"/>
<text text-anchor="start" x="1087.5" y="-91" font-family="Helvetica,sans-Serif" font-size="10.00">src/analysis/physics</text>
<text text-anchor="middle" x="1134.5" y="-80" font-family="Helvetica,sans-Serif" font-size="10.00">/omega/pi0eta.cc</text>
</a>
</g>
</g>
<!-- Node12&#45;&gt;Node20 -->
<g id="edge8" class="edge"><title>Node12&#45;&gt;Node20</title>
<path fill="none" stroke="midnightblue" d="M1085.98,-137.864C1097.15,-126.614 1110.49,-113.179 1120.36,-103.246"/>
<polygon fill="midnightblue" stroke="midnightblue" points="1083.23,-135.671 1078.67,-145.233 1088.2,-140.603 1083.23,-135.671"/>
</g>
<!-- Node21 -->
<g id="node10" class="node"><title>Node21</title>
<g id="a_node10"><a xlink:href="pi0eta__lost__g_8cc.html" target="_top" xlink:title="src/analysis/physics\l/omega/pi0eta_lost_g.cc">
<polygon fill="white" stroke="black" points="1207.5,-73 1207.5,-103 1341.5,-103 1341.5,-73 1207.5,-73"/>
<text text-anchor="start" x="1215.5" y="-91" font-family="Helvetica,sans-Serif" font-size="10.00">src/analysis/physics</text>
<text text-anchor="middle" x="1274.5" y="-80" font-family="Helvetica,sans-Serif" font-size="10.00">/omega/pi0eta_lost_g.cc</text>
</a>
</g>
</g>
<!-- Node12&#45;&gt;Node21 -->
<g id="edge9" class="edge"><title>Node12&#45;&gt;Node21</title>
<path fill="none" stroke="midnightblue" d="M1116.02,-142.205C1151.82,-130.184 1198.95,-114.364 1232.48,-103.107"/>
<polygon fill="midnightblue" stroke="midnightblue" points="1114.61,-138.987 1106.24,-145.487 1116.83,-145.623 1114.61,-138.987"/>
</g>
<!-- Node22 -->
<g id="node11" class="node"><title>Node22</title>
<g id="a_node11"><a xlink:href="_just_pi0_8cc.html" target="_top" xlink:title="src/analysis/physics\l/pi0/JustPi0.cc">
<polygon fill="white" stroke="black" points="1359.5,-73 1359.5,-103 1469.5,-103 1469.5,-73 1359.5,-73"/>
<text text-anchor="start" x="1367.5" y="-91" font-family="Helvetica,sans-Serif" font-size="10.00">src/analysis/physics</text>
<text text-anchor="middle" x="1414.5" y="-80" font-family="Helvetica,sans-Serif" font-size="10.00">/pi0/JustPi0.cc</text>
</a>
</g>
</g>
<!-- Node12&#45;&gt;Node22 -->
<g id="edge10" class="edge"><title>Node12&#45;&gt;Node22</title>
<path fill="none" stroke="midnightblue" d="M1122.29,-151.519C1180.38,-142.977 1272.28,-128.044 1350.5,-109 1357.63,-107.265 1365.12,-105.173 1372.37,-103.004"/>
<polygon fill="midnightblue" stroke="midnightblue" points="1121.59,-148.083 1112.2,-152.988 1122.6,-155.01 1121.59,-148.083"/>
</g>
<!-- Node23 -->
<g id="node12" class="node"><title>Node23</title>
<g id="a_node12"><a xlink:href="_pi0_dalitz_8cc.html" target="_top" xlink:title="src/analysis/physics\l/pi0/Pi0Dalitz.cc">
<polygon fill="white" stroke="black" points="1487.5,-73 1487.5,-103 1597.5,-103 1597.5,-73 1487.5,-73"/>
<text text-anchor="start" x="1495.5" y="-91" font-family="Helvetica,sans-Serif" font-size="10.00">src/analysis/physics</text>
<text text-anchor="middle" x="1542.5" y="-80" font-family="Helvetica,sans-Serif" font-size="10.00">/pi0/Pi0Dalitz.cc</text>
</a>
</g>
</g>
<!-- Node12&#45;&gt;Node23 -->
<g id="edge11" class="edge"><title>Node12&#45;&gt;Node23</title>
<path fill="none" stroke="midnightblue" d="M1122.58,-155.755C1203.18,-149.803 1353.18,-135.992 1478.5,-109 1486.01,-107.382 1493.9,-105.269 1501.48,-103.024"/>
<polygon fill="midnightblue" stroke="midnightblue" points="1121.87,-152.297 1112.15,-156.51 1122.38,-159.279 1121.87,-152.297"/>
</g>
<!-- Node24 -->
<g id="node13" class="node"><title>Node24</title>
<g id="a_node13"><a xlink:href="checkkinfit_8h.html" target="_top" xlink:title="src/analysis/physics\l/scratch/lheijken/checkkinfit.h">
<polygon fill="white" stroke="black" points="1615.5,-73 1615.5,-103 1771.5,-103 1771.5,-73 1615.5,-73"/>
<text text-anchor="start" x="1623.5" y="-91" font-family="Helvetica,sans-Serif" font-size="10.00">src/analysis/physics</text>
<text text-anchor="middle" x="1693.5" y="-80" font-family="Helvetica,sans-Serif" font-size="10.00">/scratch/lheijken/checkkinfit.h</text>
</a>
</g>
</g>
<!-- Node12&#45;&gt;Node24 -->
<g id="edge12" class="edge"><title>Node12&#45;&gt;Node24</title>
<path fill="none" stroke="midnightblue" d="M1122.4,-156.64C1221.88,-151.161 1431.45,-137.148 1606.5,-109 1616.6,-107.376 1627.27,-105.26 1637.56,-103.014"/>
<polygon fill="midnightblue" stroke="midnightblue" points="1122.05,-153.153 1112.26,-157.19 1122.43,-160.143 1122.05,-153.153"/>
</g>
<!-- Node26 -->
<g id="node15" class="node"><title>Node26</title>
<g id="a_node15"><a xlink:href="_etap_dalitz_m_c_8cc.html" target="_top" xlink:title="src/analysis/physics\l/scratch/wagner/EtapDalitzMC.cc">
<polygon fill="white" stroke="black" points="1790,-73 1790,-103 1963,-103 1963,-73 1790,-73"/>
<text text-anchor="start" x="1798" y="-91" font-family="Helvetica,sans-Serif" font-size="10.00">src/analysis/physics</text>
<text text-anchor="middle" x="1876.5" y="-80" font-family="Helvetica,sans-Serif" font-size="10.00">/scratch/wagner/EtapDalitzMC.cc</text>
</a>
</g>
</g>
<!-- Node12&#45;&gt;Node26 -->
<g id="edge14" class="edge"><title>Node12&#45;&gt;Node26</title>
<path fill="none" stroke="midnightblue" d="M1122.3,-158.067C1244.39,-154.461 1537.33,-142.748 1780.5,-109 1791.8,-107.432 1803.76,-105.315 1815.26,-103.043"/>
<polygon fill="midnightblue" stroke="midnightblue" points="1121.96,-154.576 1112.07,-158.362 1122.16,-161.573 1121.96,-154.576"/>
</g>
<!-- Node27 -->
<g id="node16" class="node"><title>Node27</title>
<g id="a_node16"><a xlink:href="_test_matcher_8cc.html" target="_top" xlink:title="test/analysis/TestMatcher.cc">
<polygon fill="white" stroke="black" points="1981.5,-78.5 1981.5,-97.5 2131.5,-97.5 2131.5,-78.5 1981.5,-78.5"/>
<text text-anchor="middle" x="2056.5" y="-85.5" font-family="Helvetica,sans-Serif" font-size="10.00">test/analysis/TestMatcher.cc</text>
</a>
</g>
</g>
<!-- Node12&#45;&gt;Node27 -->
<g id="edge15" class="edge"><title>Node12&#45;&gt;Node27</title>
<path fill="none" stroke="midnightblue" d="M1122.44,-159.842C1266.82,-159.924 1653.94,-155.404 1972.5,-109 1990.6,-106.364 2010.52,-101.698 2026.42,-97.5357"/>
<polygon fill="midnightblue" stroke="midnightblue" points="1122.07,-156.342 1112.06,-159.828 1122.06,-163.342 1122.07,-156.342"/>
</g>
<!-- Node25 -->
<g id="node14" class="node"><title>Node25</title>
<g id="a_node14"><a xlink:href="checkkinfit_8cc.html" target="_top" xlink:title="src/analysis/physics\l/scratch/lheijken/checkkinfit.cc">
<polygon fill="white" stroke="black" points="1613,-0.5 1613,-30.5 1774,-30.5 1774,-0.5 1613,-0.5"/>
<text text-anchor="start" x="1621" y="-18.5" font-family="Helvetica,sans-Serif" font-size="10.00">src/analysis/physics</text>
<text text-anchor="middle" x="1693.5" y="-7.5" font-family="Helvetica,sans-Serif" font-size="10.00">/scratch/lheijken/checkkinfit.cc</text>
</a>
</g>
</g>
<!-- Node24&#45;&gt;Node25 -->
<g id="edge13" class="edge"><title>Node24&#45;&gt;Node25</title>
<path fill="none" stroke="midnightblue" d="M1693.5,-62.7317C1693.5,-52.0679 1693.5,-39.9145 1693.5,-30.7455"/>
<polygon fill="midnightblue" stroke="midnightblue" points="1690,-62.7332 1693.5,-72.7333 1697,-62.7333 1690,-62.7332"/>
</g>
</g>
</svg>
