<?xml version="1.0" encoding="UTF-8" standalone="no"?>
<!DOCTYPE svg PUBLIC "-//W3C//DTD SVG 1.1//EN"
 "http://www.w3.org/Graphics/SVG/1.1/DTD/svg11.dtd">
<!-- Generated by graphviz version 2.38.0 (20140413.2041)
 -->
<!-- Title: ant::analysis::physics::scratch_lheijken_checkkinfit Pages: 1 -->
<svg width="1066pt" height="431pt"
 viewBox="0.00 0.00 1066.00 431.00" xmlns="http://www.w3.org/2000/svg" xmlns:xlink="http://www.w3.org/1999/xlink">
<g id="graph0" class="graph" transform="scale(1 1) rotate(0) translate(4 427)">
<title>ant::analysis::physics::scratch_lheijken_checkkinfit</title>
<polygon fill="white" stroke="none" points="-4,4 -4,-427 1062,-427 1062,4 -4,4"/>
<!-- Node2 -->
<g id="node1" class="node"><title>Node2</title>
<polygon fill="#bfbfbf" stroke="black" points="903,-124.5 903,-154.5 1058,-154.5 1058,-124.5 903,-124.5"/>
<text text-anchor="start" x="911" y="-142.5" font-family="Helvetica,sans-Serif" font-size="10.00">ant::analysis::physics</text>
<text text-anchor="middle" x="980.5" y="-131.5" font-family="Helvetica,sans-Serif" font-size="10.00">::scratch_lheijken_checkkinfit</text>
</g>
<!-- Node3 -->
<g id="node2" class="node"><title>Node3</title>
<g id="a_node2"><a xlink:href="classant_1_1analysis_1_1_physics.html" target="_top" xlink:title="ant::analysis::Physics">
<polygon fill="white" stroke="black" points="653,-349 653,-368 771,-368 771,-349 653,-349"/>
<text text-anchor="middle" x="712" y="-356" font-family="Helvetica,sans-Serif" font-size="10.00">ant::analysis::Physics</text>
</a>
</g>
</g>
<!-- Node3&#45;&gt;Node2 -->
<g id="edge1" class="edge"><title>Node3&#45;&gt;Node2</title>
<path fill="none" stroke="midnightblue" d="M734.028,-342.435C766.722,-317.332 831.543,-267.059 885,-222.5 912.675,-199.431 943.933,-171.619 962.658,-154.762"/>
<polygon fill="midnightblue" stroke="midnightblue" points="731.503,-339.961 725.695,-348.822 735.761,-345.516 731.503,-339.961"/>
</g>
<!-- Node4 -->
<g id="node3" class="node"><title>Node4</title>
<g id="a_node3"><a xlink:href="classant_1_1analysis_1_1_histogram_factory.html" target="_top" xlink:title="ant::analysis::Histogram\lFactory">
<polygon fill="white" stroke="black" points="414,-392.5 414,-422.5 547,-422.5 547,-392.5 414,-392.5"/>
<text text-anchor="start" x="422" y="-410.5" font-family="Helvetica,sans-Serif" font-size="10.00">ant::analysis::Histogram</text>
<text text-anchor="middle" x="480.5" y="-399.5" font-family="Helvetica,sans-Serif" font-size="10.00">Factory</text>
</a>
</g>
</g>
<!-- Node4&#45;&gt;Node3 -->
<g id="edge2" class="edge"><title>Node4&#45;&gt;Node3</title>
<path fill="none" stroke="#9a32cd" stroke-dasharray="5,2" d="M557.283,-391.32C593.4,-383.609 635.36,-374.65 666.308,-368.042"/>
<polygon fill="#9a32cd" stroke="#9a32cd" points="556.314,-387.948 547.265,-393.459 557.776,-394.793 556.314,-387.948"/>
<text text-anchor="middle" x="592" y="-390.5" font-family="Helvetica,sans-Serif" font-size="10.00"> HistFac</text>
</g>
<!-- Node5 -->
<g id="node4" class="node"><title>Node5</title>
<g id="a_node4"><a xlink:href="classant_1_1analysis_1_1utils_1_1_kin_fitter.html" target="_top" xlink:title="ant::analysis::utils\l::KinFitter">
<polygon fill="white" stroke="black" points="661,-124.5 661,-154.5 763,-154.5 763,-124.5 661,-124.5"/>
<text text-anchor="start" x="669" y="-142.5" font-family="Helvetica,sans-Serif" font-size="10.00">ant::analysis::utils</text>
<text text-anchor="middle" x="712" y="-131.5" font-family="Helvetica,sans-Serif" font-size="10.00">::KinFitter</text>
</a>
</g>
</g>
<!-- Node5&#45;&gt;Node2 -->
<g id="edge3" class="edge"><title>Node5&#45;&gt;Node2</title>
<path fill="none" stroke="#9a32cd" stroke-dasharray="5,2" d="M773.612,-139.5C811.934,-139.5 861.798,-139.5 902.856,-139.5"/>
<polygon fill="#9a32cd" stroke="#9a32cd" points="773.127,-136 763.127,-139.5 773.127,-143 773.127,-136"/>
<text text-anchor="middle" x="847" y="-142.5" font-family="Helvetica,sans-Serif" font-size="10.00"> fitter</text>
</g>
<!-- Node6 -->
<g id="node5" class="node"><title>Node6</title>
<g id="a_node5"><a xlink:href="classant_1_1analysis_1_1utils_1_1_fitter.html" target="_top" xlink:title="ant::analysis::utils\l::Fitter">
<polygon fill="white" stroke="black" points="429.5,-147.5 429.5,-177.5 531.5,-177.5 531.5,-147.5 429.5,-147.5"/>
<text text-anchor="start" x="437.5" y="-165.5" font-family="Helvetica,sans-Serif" font-size="10.00">ant::analysis::utils</text>
<text text-anchor="middle" x="480.5" y="-154.5" font-family="Helvetica,sans-Serif" font-size="10.00">::Fitter</text>
</a>
</g>
</g>
<!-- Node6&#45;&gt;Node5 -->
<g id="edge4" class="edge"><title>Node6&#45;&gt;Node5</title>
<path fill="none" stroke="midnightblue" d="M542.03,-156.24C551.07,-155.315 560.279,-154.378 569,-153.5 599.44,-150.434 633.558,-147.068 660.721,-144.405"/>
<polygon fill="midnightblue" stroke="midnightblue" points="541.521,-152.774 531.93,-157.276 542.235,-159.738 541.521,-152.774"/>
</g>
<!-- Node11 -->
<g id="node10" class="node"><title>Node11</title>
<g id="a_node10"><a xlink:href="classant_1_1analysis_1_1utils_1_1_no_proton_fitter.html" target="_top" xlink:title="ant::analysis::utils\l::NoProtonFitter">
<polygon fill="white" stroke="black" points="661,-233.5 661,-263.5 763,-263.5 763,-233.5 661,-233.5"/>
<text text-anchor="start" x="669" y="-251.5" font-family="Helvetica,sans-Serif" font-size="10.00">ant::analysis::utils</text>
<text text-anchor="middle" x="712" y="-240.5" font-family="Helvetica,sans-Serif" font-size="10.00">::NoProtonFitter</text>
</a>
</g>
</g>
<!-- Node6&#45;&gt;Node11 -->
<g id="edge10" class="edge"><title>Node6&#45;&gt;Node11</title>
<path fill="none" stroke="midnightblue" d="M541.971,-163.249C565.429,-165.194 592.103,-169.496 615,-178.5 646.865,-191.03 677.771,-216.743 695.562,-233.274"/>
<polygon fill="midnightblue" stroke="midnightblue" points="542.012,-159.743 531.791,-162.532 541.52,-166.726 542.012,-159.743"/>
</g>
<!-- Node7 -->
<g id="node6" class="node"><title>Node7</title>
<g id="a_node6"><a xlink:href="structant_1_1analysis_1_1utils_1_1_kin_fitter_1_1_target__t.html" target="_top" xlink:title="ant::analysis::utils\l::KinFitter::Target_t">
<polygon fill="white" stroke="black" points="428,-98.5 428,-128.5 533,-128.5 533,-98.5 428,-98.5"/>
<text text-anchor="start" x="436" y="-116.5" font-family="Helvetica,sans-Serif" font-size="10.00">ant::analysis::utils</text>
<text text-anchor="middle" x="480.5" y="-105.5" font-family="Helvetica,sans-Serif" font-size="10.00">::KinFitter::Target_t</text>
</a>
</g>
</g>
<!-- Node7&#45;&gt;Node5 -->
<g id="edge5" class="edge"><title>Node7&#45;&gt;Node5</title>
<path fill="none" stroke="#9a32cd" stroke-dasharray="5,2" d="M543.135,-120.483C579.996,-124.659 626.239,-129.897 660.851,-133.819"/>
<polygon fill="#9a32cd" stroke="#9a32cd" points="543.335,-116.983 533.004,-119.335 542.547,-123.938 543.335,-116.983"/>
<text text-anchor="middle" x="592" y="-131.5" font-family="Helvetica,sans-Serif" font-size="10.00"> Target</text>
</g>
<!-- Node8 -->
<g id="node7" class="node"><title>Node8</title>
<g id="a_node7"><a xlink:href="structant_1_1analysis_1_1utils_1_1_kin_fitter_1_1_beam_e__t.html" target="_top" xlink:title="ant::analysis::utils\l::KinFitter::BeamE_t">
<polygon fill="white" stroke="black" points="425.5,-49.5 425.5,-79.5 535.5,-79.5 535.5,-49.5 425.5,-49.5"/>
<text text-anchor="start" x="433.5" y="-67.5" font-family="Helvetica,sans-Serif" font-size="10.00">ant::analysis::utils</text>
<text text-anchor="middle" x="480.5" y="-56.5" font-family="Helvetica,sans-Serif" font-size="10.00">::KinFitter::BeamE_t</text>
</a>
</g>
</g>
<!-- Node8&#45;&gt;Node5 -->
<g id="edge6" class="edge"><title>Node8&#45;&gt;Node5</title>
<path fill="none" stroke="#9a32cd" stroke-dasharray="5,2" d="M536.72,-82.8512C565.418,-92.356 601.075,-104.116 633,-114.5 643.007,-117.755 653.746,-121.217 663.958,-124.495"/>
<polygon fill="#9a32cd" stroke="#9a32cd" points="537.471,-79.4127 526.878,-79.5892 535.269,-86.0573 537.471,-79.4127"/>
<text text-anchor="middle" x="592" y="-111.5" font-family="Helvetica,sans-Serif" font-size="10.00"> BeamE</text>
</g>
<!-- Node9 -->
<g id="node8" class="node"><title>Node9</title>
<polygon fill="white" stroke="#bfbfbf" points="223.5,-55 223.5,-74 279.5,-74 279.5,-55 223.5,-55"/>
<text text-anchor="middle" x="251.5" y="-62" font-family="Helvetica,sans-Serif" font-size="10.00">V_S_P_t</text>
</g>
<!-- Node9&#45;&gt;Node8 -->
<g id="edge7" class="edge"><title>Node9&#45;&gt;Node8</title>
<path fill="none" stroke="midnightblue" d="M290.184,-64.5C327.023,-64.5 383.496,-64.5 425.182,-64.5"/>
<polygon fill="midnightblue" stroke="midnightblue" points="289.882,-61.0001 279.882,-64.5 289.881,-68.0001 289.882,-61.0001"/>
</g>
<!-- Node10 -->
<g id="node9" class="node"><title>Node10</title>
<polygon fill="white" stroke="#bfbfbf" points="413,-197 413,-216 548,-216 548,-197 413,-197"/>
<text text-anchor="middle" x="480.5" y="-204" font-family="Helvetica,sans-Serif" font-size="10.00">std::vector&lt; FitParticle &gt;</text>
</g>
<!-- Node10&#45;&gt;Node5 -->
<g id="edge8" class="edge"><title>Node10&#45;&gt;Node5</title>
<path fill="none" stroke="#9a32cd" stroke-dasharray="5,2" d="M524.441,-194.183C533.23,-191.651 542.415,-188.996 551,-186.5 587.835,-175.79 629.402,-163.576 660.935,-154.284"/>
<polygon fill="#9a32cd" stroke="#9a32cd" points="523.383,-190.845 514.741,-196.975 525.319,-197.572 523.383,-190.845"/>
<text text-anchor="middle" x="592" y="-183.5" font-family="Helvetica,sans-Serif" font-size="10.00"> Photons</text>
</g>
<!-- Node10&#45;&gt;Node11 -->
<g id="edge18" class="edge"><title>Node10&#45;&gt;Node11</title>
<path fill="none" stroke="#9a32cd" stroke-dasharray="5,2" d="M543.674,-217.878C580.394,-224.598 626.279,-232.995 660.706,-239.296"/>
<polygon fill="#9a32cd" stroke="#9a32cd" points="544.044,-214.388 533.577,-216.03 542.784,-221.274 544.044,-214.388"/>
<text text-anchor="middle" x="592" y="-233.5" font-family="Helvetica,sans-Serif" font-size="10.00"> Photons</text>
</g>
<!-- Node11&#45;&gt;Node2 -->
<g id="edge9" class="edge"><title>Node11&#45;&gt;Node2</title>
<path fill="none" stroke="#9a32cd" stroke-dasharray="5,2" d="M759.111,-229.64C811.158,-208.353 894.795,-174.145 942.674,-154.562"/>
<polygon fill="#9a32cd" stroke="#9a32cd" points="757.707,-226.433 749.776,-233.458 760.357,-232.912 757.707,-226.433"/>
<text text-anchor="middle" x="847" y="-210.5" font-family="Helvetica,sans-Serif" font-size="10.00"> npfitter</text>
</g>
<!-- Node12 -->
<g id="node11" class="node"><title>Node12</title>
<g id="a_node11"><a xlink:href="structant_1_1analysis_1_1utils_1_1_no_proton_fitter_1_1_beam_e__t.html" target="_top" xlink:title="ant::analysis::utils\l::NoProtonFitter::BeamE_t">
<polygon fill="white" stroke="black" points="410,-294.5 410,-324.5 551,-324.5 551,-294.5 410,-294.5"/>
<text text-anchor="start" x="418" y="-312.5" font-family="Helvetica,sans-Serif" font-size="10.00">ant::analysis::utils</text>
<text text-anchor="middle" x="480.5" y="-301.5" font-family="Helvetica,sans-Serif" font-size="10.00">::NoProtonFitter::BeamE_t</text>
</a>
</g>
</g>
<!-- Node12&#45;&gt;Node11 -->
<g id="edge11" class="edge"><title>Node12&#45;&gt;Node11</title>
<path fill="none" stroke="#9a32cd" stroke-dasharray="5,2" d="M547.856,-291.863C583.809,-282.307 627.522,-270.688 660.648,-261.883"/>
<polygon fill="#9a32cd" stroke="#9a32cd" points="546.701,-288.548 537.936,-294.5 548.499,-295.313 546.701,-288.548"/>
<text text-anchor="middle" x="592" y="-287.5" font-family="Helvetica,sans-Serif" font-size="10.00"> BeamE</text>
</g>
<!-- Node13 -->
<g id="node12" class="node"><title>Node13</title>
<g id="a_node12"><a xlink:href="structant_1_1analysis_1_1utils_1_1_fitter_1_1_v___s___p__t.html" target="_top" xlink:title="ant::analysis::utils\l::Fitter::V_S_P_t">
<polygon fill="white" stroke="black" points="200.5,-294.5 200.5,-324.5 302.5,-324.5 302.5,-294.5 200.5,-294.5"/>
<text text-anchor="start" x="208.5" y="-312.5" font-family="Helvetica,sans-Serif" font-size="10.00">ant::analysis::utils</text>
<text text-anchor="middle" x="251.5" y="-301.5" font-family="Helvetica,sans-Serif" font-size="10.00">::Fitter::V_S_P_t</text>
</a>
</g>
</g>
<!-- Node13&#45;&gt;Node12 -->
<g id="edge12" class="edge"><title>Node13&#45;&gt;Node12</title>
<path fill="none" stroke="midnightblue" d="M312.854,-309.5C342.648,-309.5 378.754,-309.5 409.73,-309.5"/>
<polygon fill="midnightblue" stroke="midnightblue" points="312.597,-306 302.597,-309.5 312.597,-313 312.597,-306"/>
</g>
<!-- Node14 -->
<g id="node13" class="node"><title>Node14</title>
<g id="a_node13"><a xlink:href="structant_1_1analysis_1_1utils_1_1_fitter_1_1_v___s__t.html" target="_top" xlink:title="ant::analysis::utils\l::Fitter::V_S_t">
<polygon fill="white" stroke="black" points="0,-294.5 0,-324.5 102,-324.5 102,-294.5 0,-294.5"/>
<text text-anchor="start" x="8" y="-312.5" font-family="Helvetica,sans-Serif" font-size="10.00">ant::analysis::utils</text>
<text text-anchor="middle" x="51" y="-301.5" font-family="Helvetica,sans-Serif" font-size="10.00">::Fitter::V_S_t</text>
</a>
</g>
</g>
<!-- Node14&#45;&gt;Node13 -->
<g id="edge13" class="edge"><title>Node14&#45;&gt;Node13</title>
<path fill="none" stroke="midnightblue" d="M112.232,-309.5C140.431,-309.5 173.629,-309.5 200.426,-309.5"/>
<polygon fill="midnightblue" stroke="midnightblue" points="112.09,-306 102.09,-309.5 112.09,-313 112.09,-306"/>
</g>
<!-- Node15 -->
<g id="node14" class="node"><title>Node15</title>
<g id="a_node14"><a xlink:href="structant_1_1analysis_1_1utils_1_1_no_proton_fitter_1_1_fit_proton_un_meas.html" target="_top" xlink:title="ant::analysis::utils\l::NoProtonFitter::FitProton\lUnMeas">
<polygon fill="white" stroke="black" points="410.5,-235 410.5,-276 550.5,-276 550.5,-235 410.5,-235"/>
<text text-anchor="start" x="418.5" y="-264" font-family="Helvetica,sans-Serif" font-size="10.00">ant::analysis::utils</text>
<text text-anchor="start" x="418.5" y="-253" font-family="Helvetica,sans-Serif" font-size="10.00">::NoProtonFitter::FitProton</text>
<text text-anchor="middle" x="480.5" y="-242" font-family="Helvetica,sans-Serif" font-size="10.00">UnMeas</text>
</a>
</g>
</g>
<!-- Node15&#45;&gt;Node11 -->
<g id="edge14" class="edge"><title>Node15&#45;&gt;Node11</title>
<path fill="none" stroke="#9a32cd" stroke-dasharray="5,2" d="M560.823,-253.081C594.043,-252.067 631.654,-250.92 660.927,-250.027"/>
<polygon fill="#9a32cd" stroke="#9a32cd" points="560.557,-249.587 550.669,-253.39 560.771,-256.584 560.557,-249.587"/>
<text text-anchor="middle" x="592" y="-256.5" font-family="Helvetica,sans-Serif" font-size="10.00"> Proton</text>
</g>
<!-- Node16 -->
<g id="node15" class="node"><title>Node16</title>
<polygon fill="white" stroke="#bfbfbf" points="189,-206 189,-225 314,-225 314,-206 189,-206"/>
<text text-anchor="middle" x="251.5" y="-213" font-family="Helvetica,sans-Serif" font-size="10.00">std::array&lt; V_S_t, 3 &gt;</text>
</g>
<!-- Node16&#45;&gt;Node15 -->
<g id="edge15" class="edge"><title>Node16&#45;&gt;Node15</title>
<path fill="none" stroke="#9a32cd" stroke-dasharray="5,2" d="M324.42,-222.374C346.224,-224.965 370.176,-228.322 392,-232.5 398.016,-233.652 404.231,-234.986 410.442,-236.422"/>
<polygon fill="#9a32cd" stroke="#9a32cd" points="324.575,-218.868 314.239,-221.2 323.773,-225.822 324.575,-218.868"/>
<text text-anchor="middle" x="363" y="-246.5" font-family="Helvetica,sans-Serif" font-size="10.00"> Vars</text>
<text text-anchor="middle" x="363" y="-235.5" font-family="Helvetica,sans-Serif" font-size="10.00">Vars_before</text>
</g>
<!-- Node17 -->
<g id="node16" class="node"><title>Node17</title>
<polygon fill="white" stroke="#bfbfbf" points="187,-251 187,-270 316,-270 316,-251 187,-251"/>
<text text-anchor="middle" x="251.5" y="-258" font-family="Helvetica,sans-Serif" font-size="10.00">std::array&lt; double, 3 &gt;</text>
</g>
<!-- Node17&#45;&gt;Node15 -->
<g id="edge16" class="edge"><title>Node17&#45;&gt;Node15</title>
<path fill="none" stroke="#9a32cd" stroke-dasharray="5,2" d="M326.218,-258.876C353.272,-258.28 383.777,-257.608 410.41,-257.022"/>
<polygon fill="#9a32cd" stroke="#9a32cd" points="325.954,-255.381 316.034,-259.101 326.109,-262.379 325.954,-255.381"/>
<text text-anchor="middle" x="363" y="-262.5" font-family="Helvetica,sans-Serif" font-size="10.00"> Pulls</text>
</g>
<!-- Node18 -->
<g id="node17" class="node"><title>Node18</title>
<g id="a_node17"><a xlink:href="structant_1_1analysis_1_1utils_1_1_no_proton_fitter_1_1_target__t.html" target="_top" xlink:title="ant::analysis::utils\l::NoProtonFitter::Target_t">
<polygon fill="white" stroke="black" points="412.5,-343.5 412.5,-373.5 548.5,-373.5 548.5,-343.5 412.5,-343.5"/>
<text text-anchor="start" x="420.5" y="-361.5" font-family="Helvetica,sans-Serif" font-size="10.00">ant::analysis::utils</text>
<text text-anchor="middle" x="480.5" y="-350.5" font-family="Helvetica,sans-Serif" font-size="10.00">::NoProtonFitter::Target_t</text>
</a>
</g>
</g>
<!-- Node18&#45;&gt;Node11 -->
<g id="edge17" class="edge"><title>Node18&#45;&gt;Node11</title>
<path fill="none" stroke="#9a32cd" stroke-dasharray="5,2" d="M535.725,-339.851C540.927,-337.805 546.09,-335.674 551,-333.5 599.894,-311.852 654.407,-281.472 685.516,-263.503"/>
<polygon fill="#9a32cd" stroke="#9a32cd" points="534.456,-336.588 526.365,-343.428 536.955,-343.127 534.456,-336.588"/>
<text text-anchor="middle" x="592" y="-326.5" font-family="Helvetica,sans-Serif" font-size="10.00"> Target</text>
</g>
<!-- Node19 -->
<g id="node18" class="node"><title>Node19</title>
<g id="a_node18"><a xlink:href="classant_1_1analysis_1_1_prompt_random_1_1_switch.html" target="_top" xlink:title="ant::analysis::PromptRandom\l::Switch">
<polygon fill="white" stroke="black" points="633,-75.5 633,-105.5 791,-105.5 791,-75.5 633,-75.5"/>
<text text-anchor="start" x="641" y="-93.5" font-family="Helvetica,sans-Serif" font-size="10.00">ant::analysis::PromptRandom</text>
<text text-anchor="middle" x="712" y="-82.5" font-family="Helvetica,sans-Serif" font-size="10.00">::Switch</text>
</a>
</g>
</g>
<!-- Node19&#45;&gt;Node2 -->
<g id="edge19" class="edge"><title>Node19&#45;&gt;Node2</title>
<path fill="none" stroke="#9a32cd" stroke-dasharray="5,2" d="M801.204,-106.718C834.033,-112.754 870.998,-119.55 902.722,-125.383"/>
<polygon fill="#9a32cd" stroke="#9a32cd" points="801.626,-103.237 791.158,-104.871 800.36,-110.121 801.626,-103.237"/>
<text text-anchor="middle" x="847" y="-124.5" font-family="Helvetica,sans-Serif" font-size="10.00"> promptrandom</text>
</g>
<!-- Node20 -->
<g id="node19" class="node"><title>Node20</title>
<g id="a_node19"><a xlink:href="classant_1_1_piecewise_interval.html" target="_top" xlink:title="ant::PiecewiseInterval\l\&lt; double \&gt;">
<polygon fill="white" stroke="black" points="421,-0.5 421,-30.5 540,-30.5 540,-0.5 421,-0.5"/>
<text text-anchor="start" x="429" y="-18.5" font-family="Helvetica,sans-Serif" font-size="10.00">ant::PiecewiseInterval</text>
<text text-anchor="middle" x="480.5" y="-7.5" font-family="Helvetica,sans-Serif" font-size="10.00">&lt; double &gt;</text>
</a>
</g>
</g>
<!-- Node20&#45;&gt;Node19 -->
<g id="edge20" class="edge"><title>Node20&#45;&gt;Node19</title>
<path fill="none" stroke="#9a32cd" stroke-dasharray="5,2" d="M536.72,-33.8512C565.418,-43.356 601.075,-55.1157 633,-65.5 643.007,-68.7549 653.746,-72.217 663.958,-75.4945"/>
<polygon fill="#9a32cd" stroke="#9a32cd" points="537.471,-30.4127 526.878,-30.5892 535.269,-37.0573 537.471,-30.4127"/>
<text text-anchor="middle" x="592" y="-73.5" font-family="Helvetica,sans-Serif" font-size="10.00"> promptw</text>
<text text-anchor="middle" x="592" y="-62.5" font-family="Helvetica,sans-Serif" font-size="10.00">randomw</text>
</g>
<!-- Node21 -->
<g id="node20" class="node"><title>Node21</title>
<g id="a_node20"><a xlink:title="STL class. ">
<polygon fill="white" stroke="#bfbfbf" points="194.5,-0.5 194.5,-30.5 308.5,-30.5 308.5,-0.5 194.5,-0.5"/>
<text text-anchor="start" x="202.5" y="-18.5" font-family="Helvetica,sans-Serif" font-size="10.00">std::vector&lt; interval</text>
<text text-anchor="middle" x="251.5" y="-7.5" font-family="Helvetica,sans-Serif" font-size="10.00">&lt; double &gt; &gt;</text>
</a>
</g>
</g>
<!-- Node21&#45;&gt;Node20 -->
<g id="edge21" class="edge"><title>Node21&#45;&gt;Node20</title>
<path fill="none" stroke="midnightblue" d="M318.865,-15.5C351.166,-15.5 389.66,-15.5 420.867,-15.5"/>
<polygon fill="midnightblue" stroke="midnightblue" points="318.612,-12.0001 308.612,-15.5 318.612,-19.0001 318.612,-12.0001"/>
</g>
<!-- Node22 -->
<g id="node21" class="node"><title>Node22</title>
<polygon fill="white" stroke="#bfbfbf" points="36.5,-6 36.5,-25 65.5,-25 65.5,-6 36.5,-6"/>
<text text-anchor="middle" x="51" y="-13" font-family="Helvetica,sans-Serif" font-size="10.00">T</text>
</g>
<!-- Node22&#45;&gt;Node21 -->
<g id="edge22" class="edge"><title>Node22&#45;&gt;Node21</title>
<path fill="none" stroke="#9a32cd" stroke-dasharray="5,2" d="M75.6881,-15.5C104.782,-15.5 155.093,-15.5 194.294,-15.5"/>
<polygon fill="#9a32cd" stroke="#9a32cd" points="75.6437,-12.0001 65.6437,-15.5 75.6437,-19.0001 75.6437,-12.0001"/>
<text text-anchor="middle" x="144.5" y="-18.5" font-family="Helvetica,sans-Serif" font-size="10.00"> elements</text>
</g>
<!-- Node23 -->
<g id="node22" class="node"><title>Node23</title>
<g id="a_node22"><a xlink:href="classant_1_1analysis_1_1utils_1_1_trigger_simulation.html" target="_top" xlink:title="ant::analysis::utils\l::TriggerSimulation">
<polygon fill="white" stroke="black" points="659.5,-26.5 659.5,-56.5 764.5,-56.5 764.5,-26.5 659.5,-26.5"/>
<text text-anchor="start" x="667.5" y="-44.5" font-family="Helvetica,sans-Serif" font-size="10.00">ant::analysis::utils</text>
<text text-anchor="middle" x="712" y="-33.5" font-family="Helvetica,sans-Serif" font-size="10.00">::TriggerSimulation</text>
</a>
</g>
</g>
<!-- Node23&#45;&gt;Node2 -->
<g id="edge23" class="edge"><title>Node23&#45;&gt;Node2</title>
<path fill="none" stroke="#9a32cd" stroke-dasharray="5,2" d="M772.08,-59.6734C778.466,-61.6394 784.869,-63.611 791,-65.5 832.783,-78.3733 844.267,-78.6152 885,-94.5 907.516,-103.281 932.144,-115.084 950.611,-124.399"/>
<polygon fill="#9a32cd" stroke="#9a32cd" points="772.687,-56.1982 762.1,-56.6015 770.628,-62.8885 772.687,-56.1982"/>
<text text-anchor="middle" x="847" y="-97.5" font-family="Helvetica,sans-Serif" font-size="10.00"> triggersimu</text>
</g>
</g>
</svg>
